<?xml version="1.0" encoding="utf-8"?>
<!-- Svg Vector Icons : http://www.onlinewebfonts.com/icon -->
<!DOCTYPE svg PUBLIC "-//W3C//DTD SVG 1.1//EN" "http://www.w3.org/Graphics/SVG/1.1/DTD/svg11.dtd">
<svg version="1.1" xmlns="http://www.w3.org/2000/svg" xmlns:xlink="http://www.w3.org/1999/xlink" x="0px" y="0px" viewBox="0 0 1000 1000" enable-background="new 0 0 1000 1000" xml:space="preserve">
<metadata> Svg Vector Icons : http://www.onlinewebfonts.com/icon </metadata>
<g><g><path d="M47.2,252.8l430.2,292.3c13.7,9.3,31.5,9.3,45.1,0l430.2-292.3c21.5-14.6,11.2-48.3-14.8-48.3H62C36,204.5,25.6,238.1,47.2,252.8z"/><path d="M948.7,298.9L686.8,476.9l258.4,249.6c16.8,16.2,44.8,4.3,44.8-19V320.8C989.9,299.6,966.2,287.1,948.7,298.9z"/><path d="M54.7,726.5l258.4-249.6L51.2,298.9C33.7,287,10,299.6,10,320.8v386.7C9.9,730.8,37.9,742.7,54.7,726.5z"/><path d="M898,795.5c23.8,0,35.4-28.9,18.4-45.4l-260.8-252L540,576.6c-12.1,8.2-26.1,12.4-40,12.4c-13.9,0-27.9-4.1-40-12.4l-115.6-78.5l-260.8,252c-17.1,16.5-5.4,45.4,18.4,45.4H898L898,795.5z"/></g><g></g><g></g><g></g><g></g><g></g><g></g><g></g><g></g><g></g><g></g><g></g><g></g><g></g><g></g><g></g></g>
</svg>